<?xml version="1.0" standalone="no"?>
<!DOCTYPE svg PUBLIC "-//W3C//DTD SVG 20010904//EN"
 "http://www.w3.org/TR/2001/REC-SVG-20010904/DTD/svg10.dtd">
<svg version="1.0" xmlns="http://www.w3.org/2000/svg"
 width="1280.000000pt" height="787.000000pt" viewBox="0 0 1280.000000 787.000000"
 preserveAspectRatio="xMidYMid meet">
<metadata>
Created by potrace 1.15, written by Peter Selinger 2001-2017
</metadata>
<g transform="translate(0.000000,787.000000) scale(0.100000,-0.100000)"
fill="#000000" stroke="none">
<path d="M4305 7858 c-48 -17 -121 -75 -159 -127 -43 -58 -56 -89 -158 -361
-89 -238 -137 -339 -210 -438 -63 -86 -181 -325 -207 -422 -13 -46 -21 -105
-21 -153 0 -74 1 -79 20 -74 26 7 27 28 -21 -495 -48 -526 -49 -634 -5 -738
33 -77 31 -110 -14 -175 -41 -60 -56 -105 -90 -270 -71 -349 -121 -878 -119
-1269 0 -162 9 -230 32 -253 22 -23 117 -28 219 -13 115 16 112 22 104 -205
-3 -107 -15 -253 -31 -360 -51 -366 -29 -561 116 -1030 27 -88 49 -173 49
-190 0 -16 -14 -59 -30 -93 -21 -44 -30 -79 -30 -113 0 -40 -4 -50 -22 -60
-38 -20 -242 -23 -399 -5 -132 15 -350 25 -1519 71 -217 9 -474 20 -570 25
-96 6 -265 15 -375 20 -250 12 -420 26 -555 46 -104 16 -273 16 -297 1 -10 -6
-13 -136 -13 -593 l0 -584 6400 0 6400 0 0 500 0 501 -32 -1 c-18 0 -504 3
-1080 6 -744 5 -1131 3 -1335 -5 -308 -13 -382 -21 -482 -51 -84 -26 -166 -25
-340 5 -174 30 -253 31 -440 5 -79 -11 -248 -25 -375 -30 -127 -5 -269 -12
-316 -15 -47 -3 -90 -2 -97 3 -14 9 -34 166 -25 191 3 9 25 33 49 55 24 21 53
56 63 77 26 51 50 152 50 215 0 60 -24 88 -83 99 -24 5 -44 16 -53 31 -9 12
-23 24 -31 26 -11 2 10 33 71 103 97 109 111 132 121 190 4 22 17 64 27 93 12
31 18 67 15 85 -5 38 2 55 42 95 43 43 47 72 21 160 -30 99 -36 223 -21 417
l12 153 -30 89 c-19 55 -40 153 -56 263 -15 96 -41 233 -60 305 -35 136 -127
406 -175 512 -41 89 -135 223 -239 336 -49 54 -95 112 -102 129 -14 34 -16 31
76 102 46 35 140 178 166 251 12 35 19 81 19 128 0 110 -31 165 -135 239 -100
71 -282 175 -352 201 l-53 20 -67 -23 -66 -22 -17 22 c-18 24 -22 22 -55 -44
-11 -21 -33 -49 -50 -62 -16 -13 -66 -50 -110 -82 -48 -36 -91 -78 -109 -105
-22 -36 -38 -49 -78 -64 -65 -23 -73 -34 -53 -73 19 -36 16 -43 -25 -60 -34
-14 -35 -17 -15 -44 22 -29 19 -36 -14 -36 -35 0 -46 -13 -32 -39 8 -14 5 -30
-14 -67 -14 -27 -25 -57 -25 -67 0 -10 51 -71 113 -135 127 -132 151 -163 172
-223 9 -24 23 -51 31 -60 15 -16 12 -19 -33 -42 -74 -38 -85 -55 -81 -125 1
-34 0 -63 -2 -65 -69 -63 -105 -87 -130 -87 -21 0 -34 -9 -51 -32 -30 -45 -48
-58 -78 -58 -14 0 -39 -7 -55 -15 -44 -23 -77 -18 -166 26 -72 36 -102 61
-231 190 -141 140 -163 171 -139 195 27 27 73 164 80 243 8 80 7 87 -16 126
-48 83 -69 88 -123 31 -39 -41 -53 -34 -45 22 9 73 -6 85 -171 133 -275 79
-361 122 -765 378 -79 51 -167 100 -194 109 -56 20 -71 37 -154 182 -64 112
-192 351 -192 358 0 2 7 -1 15 -8 27 -23 29 -1 5 71 -13 41 -19 74 -14 79 5 5
48 -16 102 -51 51 -34 96 -58 100 -55 3 4 -15 28 -40 54 -33 34 -46 55 -46 77
-1 17 -13 89 -28 160 -24 115 -28 154 -30 345 -2 194 -4 219 -23 260 -25 54
-26 88 -6 138 21 49 53 82 81 82 38 0 46 21 29 76 -20 66 -19 112 4 155 45 85
56 275 21 357 -44 101 -175 193 -345 242 -76 22 -133 24 -180 8z m581 -2838
c249 -147 331 -178 628 -231 93 -17 182 -37 197 -45 47 -24 74 -72 74 -131 0
-29 -3 -53 -7 -53 -18 0 -30 -43 -19 -67 9 -19 8 -30 -4 -53 -8 -16 -15 -40
-15 -54 0 -32 129 -225 173 -259 45 -34 66 -102 78 -252 8 -88 7 -145 -2 -213
-12 -87 -11 -96 8 -142 35 -82 192 -357 254 -444 33 -44 59 -91 59 -103 0 -21
-5 -23 -48 -23 -26 0 -101 7 -166 15 -111 15 -120 15 -154 -2 -70 -34 -142
-185 -150 -314 -5 -88 6 -120 103 -284 72 -122 265 -566 265 -609 0 -8 -41
-63 -90 -122 -141 -170 -145 -176 -145 -254 0 -57 5 -73 35 -125 46 -79 144
-176 211 -208 69 -34 134 -46 282 -54 64 -3 117 -9 117 -13 0 -11 -137 -66
-195 -79 -143 -32 -447 -39 -655 -16 -229 26 -361 29 -510 12 -74 -9 -213 -18
-308 -19 -175 -3 -180 -2 -194 34 -2 3 -57 18 -123 33 -152 33 -269 87 -318
148 -40 48 -87 138 -87 164 0 22 188 492 281 701 74 167 135 276 268 475 161
240 158 232 130 430 -23 163 -24 220 -5 236 8 7 42 10 86 9 60 -3 74 0 85 15
15 20 11 35 -34 157 -11 30 -83 267 -160 525 -77 259 -176 580 -220 715 -94
289 -126 403 -118 424 3 8 24 27 47 41 22 14 65 48 95 75 31 28 65 50 77 50
12 0 90 -41 174 -90z m2165 -1946 c11 -14 15 -36 18 -120 1 -7 33 -49 72 -95
39 -46 75 -92 80 -102 9 -16 7 -17 -18 -11 -15 4 -149 49 -297 100 -148 52
-277 94 -287 94 -10 0 -20 4 -23 9 -5 8 390 138 425 140 9 1 23 -6 30 -15z
m-2737 -184 c51 -153 48 -199 -20 -286 -25 -32 -71 -100 -101 -151 -83 -139
-93 -141 -101 -18 -4 72 -4 72 56 186 42 81 65 139 77 195 21 100 45 168 55
157 5 -4 20 -42 34 -83z m3360 -1905 c50 -26 80 -35 116 -35 54 0 83 -20 78
-54 -3 -20 -8 -21 -183 -24 -160 -2 -183 0 -210 16 -34 21 -60 64 -52 85 4 10
32 19 79 27 79 13 102 17 104 19 1 0 31 -15 68 -34z"/>
</g>
</svg>
